<?xml version="1.0" standalone="no"?><!DOCTYPE svg PUBLIC "-//W3C//DTD SVG 1.1//EN" "http://www.w3.org/Graphics/SVG/1.1/DTD/svg11.dtd"><svg t="1677727239434" class="icon" viewBox="0 0 1024 1024" version="1.1" xmlns="http://www.w3.org/2000/svg" p-id="2805" xmlns:xlink="http://www.w3.org/1999/xlink" width="200" height="200"><path d="M512.606821 958.898283c-246.319012 0-446.698738-200.379727-446.698738-446.698738S266.287809 65.479317 512.606821 65.479317c17.73185 0 32.117488 14.385639 32.117488 32.117488s-14.385639 32.117488-32.117488 32.117488c-210.897268 0-382.463762 171.58696-382.463762 382.484228s171.566494 382.463762 382.463762 382.463762 382.484228-171.566494 382.484228-382.463762c0-106.013499-42.384319-204.603935-119.332852-277.558503-12.859889-12.211113-13.403265-32.536021-1.212618-45.416376 12.190647-12.901845 32.536021-13.403265 45.416376-1.212618 89.870844 85.229127 139.365094 200.35926 139.365094 324.187497C959.327048 758.518556 758.925832 958.898283 512.606821 958.898283z" fill="#231815" p-id="2806"></path></svg>